<svg width="17" height="19" viewBox="0 0 17 19" fill="none" xmlns="http://www.w3.org/2000/svg">
<path d="M11.3329 17.8948C10.2685 18.403 9.17513 18.6779 8.0528 18.7193C6.93032 18.7609 5.85799 18.6009 4.8358 18.2394C3.81362 17.8779 2.87913 17.3281 2.03235 16.5901C1.18563 15.8523 0.508166 14.9512 -5.11586e-05 13.8868L1.35357 13.2405C2.19377 15.0002 3.5194 16.2003 5.33045 16.8408C7.14149 17.4813 8.92687 17.3814 10.6866 16.5412C12.4463 15.701 13.6464 14.3754 14.2869 12.5643C14.9274 10.7533 14.8275 8.96791 13.9873 7.2082C13.1471 5.4485 11.8215 4.2484 10.0105 3.60789C8.1994 2.96739 6.41403 3.06724 4.65433 3.90744L4.41473 4.02184L6.53266 4.77088L6.04903 6.20358L1.48109 4.58093L3.10834 -4.60239e-08L4.52654 0.524632L3.76842 2.66822L4.00801 2.55383C5.07241 2.04561 6.16577 1.77077 7.2881 1.72931C8.41057 1.68777 9.48291 1.84776 10.5051 2.20927C11.5273 2.57079 12.4618 3.12054 13.3086 3.85853C14.1553 4.59638 14.8327 5.4975 15.3409 6.56189C15.8492 7.62629 16.124 8.71965 16.1655 9.84197C16.207 10.9645 16.047 12.0368 15.6855 13.059C15.324 14.0812 14.7742 15.0156 14.0362 15.8624C13.2984 16.7091 12.3973 17.3866 11.3329 17.8948Z" fill="#1E2D46"/>
</svg>
